<?xml version="1.0" standalone="no"?>
<!DOCTYPE svg PUBLIC "-//W3C//DTD SVG 20010904//EN"
 "http://www.w3.org/TR/2001/REC-SVG-20010904/DTD/svg10.dtd">
<svg version="1.0" xmlns="http://www.w3.org/2000/svg"
 width="50" height="50" viewBox="0 0 512.000000 512.000000"
 preserveAspectRatio="xMidYMid meet">

<g transform="translate(0.000000,512.000000) scale(0.100000,-0.100000)"
fill="#000000" stroke="none">
<path d="M3230 4719 c-276 -29 -456 -185 -396 -343 40 -104 179 -176 409 -211
l37 -6 0 -288 0 -288 -35 -6 c-76 -12 -208 -59 -231 -82 -30 -30 -31 -74 -4
-103 32 -34 59 -35 154 -2 135 45 200 40 231 -20 24 -47 19 -97 -12 -129 -26
-25 -223 -95 -565 -201 -77 -24 -132 -71 -149 -131 -11 -34 -8 -66 15 -222 29
-188 38 -217 78 -253 55 -50 32 -49 723 -54 l650 -5 37 -23 c39 -24 78 -91 78
-133 -1 -42 -36 -105 -71 -127 -34 -20 -46 -21 -649 -24 l-615 -4 -81 -27
c-240 -80 -407 -289 -422 -529 -4 -72 -3 -78 21 -102 32 -32 68 -33 102 -4 21
19 28 37 36 96 12 89 30 142 70 203 68 107 184 180 314 199 40 5 310 10 636
10 639 0 621 -2 708 76 73 65 106 139 106 234 0 95 -33 169 -106 234 -93 84
-60 80 -786 84 l-643 3 -5 22 c-18 85 -45 301 -38 307 4 4 143 51 308 105
l300 97 51 52 c110 109 111 270 3 378 l-49 49 0 304 0 304 48 6 c153 21 290
73 352 135 46 46 75 117 66 163 -25 133 -190 232 -425 256 -114 12 -141 12
-251 0z m325 -174 c101 -23 195 -73 195 -105 0 -17 -67 -61 -122 -80 -200 -70
-524 -43 -625 52 -32 30 -29 43 15 73 107 74 352 101 537 60z"/>
<path d="M3282 4497 c-32 -34 -30 -89 6 -117 38 -31 136 -25 163 9 26 32 24
82 -4 109 -34 32 -134 32 -165 -1z"/>
<path d="M995 4670 c-327 -52 -482 -253 -319 -415 65 -65 253 -135 364 -135
l30 0 0 -317 0 -316 -40 -35 c-63 -53 -94 -122 -93 -207 0 -82 18 -128 70
-186 48 -53 54 -56 357 -165 143 -52 274 -104 292 -114 34 -22 105 -95 122
-127 6 -11 38 -101 71 -200 51 -152 61 -192 61 -250 0 -37 -20 -382 -44 -765
-43 -692 -44 -755 -15 -809 6 -11 9 -22 7 -23 -2 -2 -140 23 -308 55 -1277
242 -1179 228 -1214 177 -36 -51 -2 -111 70 -123 38 -7 365 -70 864 -166 608
-118 924 -163 1090 -153 52 2 349 16 660 30 311 13 661 29 778 34 230 11 547
25 792 36 152 7 155 8 182 35 58 57 19 129 -70 129 -27 0 -540 -22 -1141 -50
-601 -27 -1098 -50 -1106 -50 -10 0 -8 14 12 56 22 48 29 90 49 297 24 249 23
265 -15 294 -25 19 -68 15 -96 -9 -25 -22 -26 -30 -45 -238 -11 -118 -24 -232
-30 -252 -49 -173 -290 -169 -338 4 -8 28 -2 163 24 540 18 277 39 622 45 768
l12 265 -63 190 c-34 105 -75 215 -91 246 -36 73 -113 156 -180 196 -30 17
-169 73 -309 123 -140 51 -267 98 -281 106 -15 7 -34 30 -44 50 -21 44 -10 97
28 132 48 45 73 41 339 -57 136 -50 280 -100 319 -111 96 -26 267 -44 353 -36
252 24 648 122 681 169 22 32 19 74 -10 102 -29 30 -53 31 -128 5 -253 -89
-628 -136 -803 -100 -32 7 -162 50 -289 97 -126 47 -260 95 -298 107 l-67 21
2 294 3 295 80 11 c138 20 252 66 314 127 36 35 70 100 71 133 1 113 -118 219
-297 266 -90 23 -312 34 -408 19z m369 -176 c69 -18 146 -55 166 -79 19 -23 4
-44 -56 -77 -83 -46 -172 -63 -324 -62 -145 0 -224 15 -310 59 -59 30 -77 51
-63 73 23 38 136 85 248 103 73 12 270 2 339 -17z"/>
<path d="M1070 4450 c-22 -22 -26 -69 -10 -100 23 -43 141 -49 181 -9 26 26
25 83 -1 109 -16 16 -33 20 -85 20 -52 0 -69 -4 -85 -20z"/>
<path d="M2070 4369 c-88 -15 -193 -70 -261 -138 -151 -152 -165 -352 -43
-609 57 -119 140 -207 240 -254 63 -30 77 -33 165 -33 90 0 99 2 171 38 92 45
153 108 203 211 47 97 65 171 72 302 5 96 3 121 -16 182 -22 75 -75 155 -135
204 -50 41 -153 85 -227 98 -73 11 -92 11 -169 -1z m191 -170 c81 -20 159 -94
187 -178 27 -77 5 -264 -43 -364 -67 -143 -210 -203 -337 -143 -159 76 -271
392 -193 546 14 27 39 60 57 73 104 79 203 98 329 66z"/>
</g>
</svg>
