<?xml version="1.0" standalone="no"?>
<!DOCTYPE svg PUBLIC "-//W3C//DTD SVG 20010904//EN"
 "http://www.w3.org/TR/2001/REC-SVG-20010904/DTD/svg10.dtd">
<svg version="1.0" xmlns="http://www.w3.org/2000/svg"
 width="60" height="60" viewBox="0 0 512.000000 512.000000"
 preserveAspectRatio="xMidYMid meet">

<g transform="translate(0.000000,512.000000) scale(0.100000,-0.100000)"
fill="#000000" stroke="none">
<path d="M2445 4674 c-304 -22 -554 -88 -810 -213 -361 -177 -653 -439 -866
-777 -73 -116 -163 -302 -208 -429 l-32 -90 -76 3 c-161 7 -303 -68 -387 -207
-55 -90 -66 -154 -66 -401 0 -247 11 -311 66 -401 84 -139 226 -214 387 -207
l76 3 32 -90 c185 -527 570 -959 1074 -1206 299 -146 586 -212 925 -212 339 0
626 66 925 212 361 177 653 439 866 777 73 116 163 302 208 429 l32 90 76 -3
c161 -7 303 68 387 207 55 90 66 154 66 401 0 247 -11 311 -66 401 -84 139
-226 214 -387 207 l-76 -3 -32 90 c-185 527 -570 959 -1074 1206 -207 101
-410 164 -630 194 -107 15 -328 25 -410 19z m380 -183 c443 -65 799 -243 1111
-555 122 -123 200 -220 285 -357 384 -618 384 -1420 0 -2038 -159 -257 -385
-483 -642 -642 -618 -384 -1420 -384 -2038 0 -257 159 -483 385 -642 642 -384
618 -384 1420 0 2038 159 257 385 483 642 642 378 235 849 334 1284 270z
m-2349 -1489 c9 -5 8 -25 -2 -77 -27 -144 -38 -355 -25 -512 7 -82 18 -179 25
-218 16 -83 12 -88 -59 -80 -67 8 -124 35 -168 79 -70 70 -72 76 -75 331 -2
127 -1 249 3 271 8 54 54 124 106 159 58 41 165 67 195 47z m4320 -21 c47 -21
105 -76 131 -124 16 -28 18 -62 18 -297 0 -295 0 -294 -72 -366 -44 -44 -101
-71 -168 -79 -71 -8 -75 -3 -59 80 7 39 18 136 25 218 13 157 2 368 -25 512
-10 52 -11 72 -2 78 16 11 105 -1 152 -22z"/>
<path d="M2305 4304 c-576 -88 -1062 -442 -1324 -962 -268 -534 -236 -1201 82
-1712 139 -222 345 -428 567 -567 563 -351 1297 -351 1860 0 222 139 428 345
567 567 351 563 351 1297 0 1860 -70 111 -153 214 -253 314 -276 276 -610 443
-1001 501 -126 18 -374 18 -498 -1z m490 -165 c513 -75 962 -403 1198 -876 68
-134 122 -312 148 -478 16 -103 16 -347 0 -450 -109 -711 -645 -1247 -1356
-1356 -103 -16 -347 -16 -450 0 -711 109 -1247 645 -1356 1356 -16 103 -16
347 0 450 100 651 567 1167 1196 1324 195 48 417 59 620 30z"/>
<path d="M1991 3894 c-322 -86 -480 -498 -319 -831 62 -129 211 -252 358 -298
74 -23 395 -34 441 -15 55 23 70 98 27 137 -17 15 -44 19 -187 23 -142 4 -171
8 -199 25 -111 67 -144 293 -55 377 54 49 68 53 273 59 242 7 282 19 376 113
71 72 103 143 111 251 6 80 -7 118 -53 154 -26 20 -36 21 -373 20 -269 0 -358
-4 -400 -15z m656 -186 c-7 -55 -52 -116 -106 -145 -40 -21 -57 -23 -188 -23
l-143 0 0 105 0 105 221 0 222 0 -6 -42z m-619 -210 c-13 -9 -35 -26 -49 -37
l-27 -21 -44 53 c-75 90 -72 83 -52 116 22 38 100 97 150 115 l39 13 3 -111
c3 -106 2 -112 -20 -128z m-183 -237 c-3 -24 -5 -69 -6 -100 l-1 -56 -24 52
c-28 59 -48 165 -39 202 l6 25 35 -39 c31 -36 34 -45 29 -84z"/>
<path d="M3122 3677 c-30 -32 -29 -81 3 -112 21 -22 33 -25 98 -25 67 0 77 3
101 26 34 34 34 77 1 109 -21 22 -33 25 -103 25 -69 0 -81 -3 -100 -23z"/>
<path d="M3504 3520 c-28 -11 -54 -48 -54 -76 0 -29 34 -70 64 -78 89 -22 137
107 55 149 -32 17 -36 17 -65 5z"/>
<path d="M1375 3428 c-75 -40 -49 -151 35 -151 82 0 111 111 39 148 -33 18
-47 18 -74 3z"/>
<path d="M3062 3267 c-29 -31 -29 -87 -1 -113 18 -17 42 -20 188 -24 142 -4
171 -8 199 -25 99 -60 143 -260 78 -354 -48 -69 -68 -75 -286 -82 -165 -6
-204 -10 -252 -28 -143 -55 -231 -178 -244 -344 -5 -65 -4 -76 18 -107 48 -71
52 -71 433 -67 339 3 340 3 409 29 222 85 346 280 347 543 0 114 -17 189 -64
285 -44 90 -159 204 -250 248 -112 54 -160 62 -367 62 -182 0 -187 -1 -208
-23z m703 -422 c10 -27 19 -84 22 -125 l4 -75 -41 45 c-36 39 -40 49 -36 80 3
19 6 64 6 100 0 58 1 62 14 45 7 -11 21 -42 31 -70z m-97 -319 c29 -35 52 -68
52 -73 0 -33 -115 -129 -177 -148 -23 -6 -23 -6 -23 112 l1 118 42 27 c23 14
45 27 48 27 3 1 29 -28 57 -63z m-318 -131 l0 -105 -220 0 c-214 0 -220 1
-220 20 0 32 28 92 58 124 51 54 92 66 245 66 l137 0 0 -105z"/>
<path d="M2637 3192 c-58 -59 -67 -72 -67 -104 0 -28 6 -42 26 -57 47 -37 78
-28 150 41 84 80 93 120 41 168 -40 38 -76 27 -150 -48z"/>
<path d="M1265 3145 c-45 -44 -35 -79 43 -157 78 -78 113 -88 157 -43 45 44
35 80 -43 158 -78 77 -113 87 -157 42z"/>
<path d="M2974 2990 c-28 -11 -54 -48 -54 -78 0 -13 14 -37 30 -54 26 -25 36
-29 63 -24 41 8 67 39 67 82 0 32 -28 74 -49 74 -5 0 -15 2 -23 4 -7 3 -23 1
-34 -4z"/>
<path d="M1194 2808 c-24 -11 -44 -48 -44 -78 0 -25 40 -68 65 -71 41 -6 76
11 89 42 17 40 9 75 -22 99 -27 22 -55 24 -88 8z"/>
<path d="M1536 2708 c-37 -34 -39 -85 -4 -118 18 -16 35 -20 96 -20 40 0 81 4
91 10 29 15 44 61 31 95 -17 44 -38 54 -117 55 -61 0 -76 -3 -97 -22z"/>
<path d="M2095 2616 c-43 -20 -487 -471 -520 -529 -88 -154 -87 -338 3 -511
51 -98 182 -229 275 -274 171 -82 352 -82 524 0 55 26 96 60 211 173 121 119
142 144 142 170 -1 52 -50 92 -98 80 -15 -4 -76 -55 -137 -115 -89 -87 -119
-110 -154 -120 -128 -34 -310 99 -311 228 0 59 29 104 151 229 157 162 184
213 184 353 0 82 -4 103 -26 150 -47 99 -137 181 -196 180 -10 -1 -31 -7 -48
-14z m78 -207 c24 -33 38 -95 30 -139 -10 -60 -39 -102 -132 -195 l-91 -90
-70 70 c-38 38 -70 74 -70 80 0 14 293 306 304 302 6 -2 18 -15 29 -28z m-298
-617 c-13 -64 -1 -59 -126 -47 l-67 6 -6 53 c-7 55 6 129 31 180 l15 29 82
-82 82 -82 -11 -57z m12 -228 c12 -3 25 -15 28 -25 4 -11 29 -42 56 -69 28
-28 44 -50 37 -50 -43 0 -218 113 -218 141 0 10 63 12 97 3z"/>
<path d="M1304 2462 c-33 -5 -154 -135 -154 -165 0 -32 33 -73 65 -81 35 -9
71 12 133 77 41 45 52 62 52 89 -1 54 -43 89 -96 80z"/>
<path d="M2502 2437 c-46 -49 -9 -137 58 -137 40 0 80 42 80 83 0 69 -90 105
-138 54z"/>
<path d="M2415 2085 c-45 -44 -35 -79 43 -157 78 -78 113 -88 157 -43 45 44
35 79 -43 157 -78 78 -113 88 -157 43z"/>
<path d="M3035 1995 c-50 -49 -15 -135 55 -135 43 0 80 39 80 83 0 70 -85 103
-135 52z"/>
<path d="M3561 1904 c-29 -36 -27 -76 5 -108 52 -51 134 -17 134 57 0 72 -95
107 -139 51z"/>
<path d="M2274 1842 c-60 -9 -79 -97 -30 -138 33 -29 65 -30 99 -4 68 54 18
156 -69 142z"/>
<path d="M2955 1651 c-42 -25 -113 -105 -120 -134 -8 -29 16 -82 40 -91 49
-18 78 -7 142 57 55 55 63 69 63 101 0 26 -7 44 -25 61 -29 30 -59 32 -100 6z"/>
<path d="M3312 1654 c-55 -38 -44 -121 18 -143 74 -25 161 -7 186 40 18 36 10
73 -23 99 -33 26 -147 28 -181 4z"/>
<path d="M2701 1304 c-51 -21 -59 -92 -15 -131 73 -66 175 33 114 109 -24 31
-59 39 -99 22z"/>
<path d="M2444 1220 c-52 -21 -70 -89 -34 -128 28 -30 62 -36 98 -18 33 17 42
34 42 77 0 28 -29 69 -49 69 -5 0 -15 2 -23 4 -7 3 -23 1 -34 -4z"/>
</g>
</svg>
